<svg xmlns="http://www.w3.org/2000/svg" xmlns:xlink="http://www.w3.org/1999/xlink" width="16" height="16" class="icon" p-id="7982" t="1596855151238" version="1.1" viewBox="0 0 1024 1024"><defs><style type="text/css"/></defs><path fill="red" d="M512 512m-512 0a512 512 0 1 0 1024 0 512 512 0 1 0-1024 0Z" p-id="7983"/><path fill="#FFF" d="M518.4 748.8m-57.6 0a57.6 57.6 0 1 0 115.2 0 57.6 57.6 0 1 0-115.2 0Z" p-id="7984"/><path fill="#FFF" d="M460.8 166.4m51.2 0l0 0q51.2 0 51.2 51.2l0 358.4q0 51.2-51.2 51.2l0 0q-51.2 0-51.2-51.2l0-358.4q0-51.2 51.2-51.2Z" p-id="7985"/></svg>