<svg xmlns="http://www.w3.org/2000/svg" width="24" height="24" version="1.1"><g transform="translate(0 -1028.4)"><rect width=".613" height="1.174" x="18.745" y="1.498" fill="#c0392b" transform="translate(0 1028.4)"/><path fill="#f39c12" d="m2 1038.4v11c0 1.1 0.8954 2 2 2h8 8c1.105 0 2-0.9 2-2v-11h-20z"/><path fill="#f1c40f" d="m2 1037.4v11c0 1.1 0.8954 2 2 2h8 8c1.105 0 2-0.9 2-2v-11h-20z"/><path fill="#c0392b" d="m19.071 1030.3c-0.39-0.4-1.024-0.4-1.414 0l-6.364 6.4c-0.391 0.3-0.391 1 0 1.4 0.39 0.4 1.024 0.4 1.414 0l6.364-6.4c0.391-0.4 0.391-1 0-1.4z"/><rect width="20" height="3" x="2" y="1037.4" fill="#f39c12"/><path fill="#f1c40f" d="m2 1035.4c-1.1046 0-2 0.9-2 2s0.89543 2 2 2h20c1.105 0 2-0.9 2-2s-0.895-2-2-2h-20z"/><path fill="#e74c3c" d="m19.071 1029.3c-0.39-0.4-1.024-0.4-1.414 0l-6.364 6.4c-0.391 0.3-0.391 1 0 1.4 0.39 0.4 1.024 0.4 1.414 0l6.364-6.4c0.391-0.4 0.391-1 0-1.4z"/><g><path fill="#f39c12" d="m9 14v1 0.5c0 0.276 0.2239 0.5 0.5 0.5s0.5-0.224 0.5-0.5v-0.5-1h-1z" transform="translate(-5) translate(0 1028.4)"/><path fill="#e67e22" d="m9.5 1041.4c-0.2761 0-0.5 0.2-0.5 0.5v0.5h0.5 0.5v-0.5c0-0.3-0.2239-0.5-0.5-0.5z" transform="translate(-5)"/></g><g><path fill="#f39c12" d="m9 14v1 0.5c0 0.276 0.2239 0.5 0.5 0.5s0.5-0.224 0.5-0.5v-0.5-1h-1z" transform="translate(-5,4) translate(0 1028.4)"/><path fill="#e67e22" d="m9.5 1041.4c-0.2761 0-0.5 0.2-0.5 0.5v0.5h0.5 0.5v-0.5c0-0.3-0.2239-0.5-0.5-0.5z" transform="translate(-5,4)"/></g><g><path fill="#f39c12" d="m9 14v1 0.5c0 0.276 0.2239 0.5 0.5 0.5s0.5-0.224 0.5-0.5v-0.5-1h-1z" transform="translate(-3) translate(0 1028.4)"/><path fill="#e67e22" d="m9.5 1041.4c-0.2761 0-0.5 0.2-0.5 0.5v0.5h0.5 0.5v-0.5c0-0.3-0.2239-0.5-0.5-0.5z" transform="translate(-3)"/></g><g><path fill="#f39c12" d="m9 14v1 0.5c0 0.276 0.2239 0.5 0.5 0.5s0.5-0.224 0.5-0.5v-0.5-1h-1z" transform="translate(-3,4) translate(0 1028.4)"/><path fill="#e67e22" d="m9.5 1041.4c-0.2761 0-0.5 0.2-0.5 0.5v0.5h0.5 0.5v-0.5c0-0.3-0.2239-0.5-0.5-0.5z" transform="translate(-3,4)"/></g><g><path fill="#f39c12" d="m9 14v1 0.5c0 0.276 0.2239 0.5 0.5 0.5s0.5-0.224 0.5-0.5v-0.5-1h-1z" transform="translate(-1) translate(0 1028.4)"/><path fill="#e67e22" d="m9.5 1041.4c-0.2761 0-0.5 0.2-0.5 0.5v0.5h0.5 0.5v-0.5c0-0.3-0.2239-0.5-0.5-0.5z" transform="translate(-1)"/></g><g><path fill="#f39c12" d="m9 14v1 0.5c0 0.276 0.2239 0.5 0.5 0.5s0.5-0.224 0.5-0.5v-0.5-1h-1z" transform="translate(1) translate(0 1028.4)"/><path fill="#e67e22" d="m9.5 1041.4c-0.2761 0-0.5 0.2-0.5 0.5v0.5h0.5 0.5v-0.5c0-0.3-0.2239-0.5-0.5-0.5z" transform="translate(1)"/></g><g><path fill="#f39c12" d="m9 14v1 0.5c0 0.276 0.2239 0.5 0.5 0.5s0.5-0.224 0.5-0.5v-0.5-1h-1z" transform="translate(1,4) translate(0 1028.4)"/><path fill="#e67e22" d="m9.5 1041.4c-0.2761 0-0.5 0.2-0.5 0.5v0.5h0.5 0.5v-0.5c0-0.3-0.2239-0.5-0.5-0.5z" transform="translate(1,4)"/></g><g><path fill="#f39c12" d="m9 14v1 0.5c0 0.276 0.2239 0.5 0.5 0.5s0.5-0.224 0.5-0.5v-0.5-1h-1z" transform="translate(-1,4) translate(0 1028.4)"/><path fill="#e67e22" d="m9.5 1041.4c-0.2761 0-0.5 0.2-0.5 0.5v0.5h0.5 0.5v-0.5c0-0.3-0.2239-0.5-0.5-0.5z" transform="translate(-1,4)"/></g><g><path fill="#f39c12" d="m9 14v1 0.5c0 0.276 0.2239 0.5 0.5 0.5s0.5-0.224 0.5-0.5v-0.5-1h-1z" transform="translate(4) translate(0 1028.4)"/><path fill="#e67e22" d="m9.5 1041.4c-0.2761 0-0.5 0.2-0.5 0.5v0.5h0.5 0.5v-0.5c0-0.3-0.2239-0.5-0.5-0.5z" transform="translate(4)"/></g><g><path fill="#f39c12" d="m9 14v1 0.5c0 0.276 0.2239 0.5 0.5 0.5s0.5-0.224 0.5-0.5v-0.5-1h-1z" transform="translate(4,4) translate(0 1028.4)"/><path fill="#e67e22" d="m9.5 1041.4c-0.2761 0-0.5 0.2-0.5 0.5v0.5h0.5 0.5v-0.5c0-0.3-0.2239-0.5-0.5-0.5z" transform="translate(4,4)"/></g><g><path fill="#f39c12" d="m9 14v1 0.5c0 0.276 0.2239 0.5 0.5 0.5s0.5-0.224 0.5-0.5v-0.5-1h-1z" transform="translate(6) translate(0 1028.4)"/><path fill="#e67e22" d="m9.5 1041.4c-0.2761 0-0.5 0.2-0.5 0.5v0.5h0.5 0.5v-0.5c0-0.3-0.2239-0.5-0.5-0.5z" transform="translate(6)"/></g><g><path fill="#f39c12" d="m9 14v1 0.5c0 0.276 0.2239 0.5 0.5 0.5s0.5-0.224 0.5-0.5v-0.5-1h-1z" transform="translate(6,4) translate(0 1028.4)"/><path fill="#e67e22" d="m9.5 1041.4c-0.2761 0-0.5 0.2-0.5 0.5v0.5h0.5 0.5v-0.5c0-0.3-0.2239-0.5-0.5-0.5z" transform="translate(6,4)"/></g><g><path fill="#f39c12" d="m9 14v1 0.5c0 0.276 0.2239 0.5 0.5 0.5s0.5-0.224 0.5-0.5v-0.5-1h-1z" transform="translate(8) translate(0 1028.4)"/><path fill="#e67e22" d="m9.5 1041.4c-0.2761 0-0.5 0.2-0.5 0.5v0.5h0.5 0.5v-0.5c0-0.3-0.2239-0.5-0.5-0.5z" transform="translate(8)"/></g><g><path fill="#f39c12" d="m9 14v1 0.5c0 0.276 0.2239 0.5 0.5 0.5s0.5-0.224 0.5-0.5v-0.5-1h-1z" transform="translate(10) translate(0 1028.4)"/><path fill="#e67e22" d="m9.5 1041.4c-0.2761 0-0.5 0.2-0.5 0.5v0.5h0.5 0.5v-0.5c0-0.3-0.2239-0.5-0.5-0.5z" transform="translate(10)"/></g><g><path fill="#f39c12" d="m9 14v1 0.5c0 0.276 0.2239 0.5 0.5 0.5s0.5-0.224 0.5-0.5v-0.5-1h-1z" transform="translate(10,4) translate(0 1028.4)"/><path fill="#e67e22" d="m9.5 1041.4c-0.2761 0-0.5 0.2-0.5 0.5v0.5h0.5 0.5v-0.5c0-0.3-0.2239-0.5-0.5-0.5z" transform="translate(10,4)"/></g><g><path fill="#f39c12" d="m9 14v1 0.5c0 0.276 0.2239 0.5 0.5 0.5s0.5-0.224 0.5-0.5v-0.5-1h-1z" transform="translate(8,4) translate(0 1028.4)"/><path fill="#e67e22" d="m9.5 1041.4c-0.2761 0-0.5 0.2-0.5 0.5v0.5h0.5 0.5v-0.5c0-0.3-0.2239-0.5-0.5-0.5z" transform="translate(8,4)"/></g></g></svg>