<svg xmlns="http://www.w3.org/2000/svg" width="24" height="24" version="1.1"><g transform="translate(0 -1028.4)"><path fill="#16a085" d="m3 1035.4v2 1 3 1 5 1c0 1.1 0.8954 2 2 2h14c1.105 0 2-0.9 2-2v-1-5-4-3h-18z"/><path fill="#ecf0f1" d="m3 1034.4v2 1 3 1 5 1c0 1.1 0.8954 2 2 2h14c1.105 0 2-0.9 2-2v-1-5-4-3h-18z"/><path fill="#bdc3c7" d="m3 1033.4v2 1 3 1 5 1c0 1.1 0.8954 2 2 2h14c1.105 0 2-0.9 2-2v-1-5-4-3h-18z"/><path fill="#ecf0f1" d="m3 1032.4v2 1 3 1 5 1c0 1.1 0.8954 2 2 2h14c1.105 0 2-0.9 2-2v-1-5-4-3h-18z"/><path fill="#16a085" d="m5 1028.4c-1.1046 0-2 0.9-2 2v1 4 2 1 3 1 5 1c0 1.1 0.8954 2 2 2h2v-1h-1.5c-0.8284 0-1.5-0.7-1.5-1.5 0-0.9 0.6716-1.5 1.5-1.5h12.5 1c1.105 0 2-0.9 2-2v-1-5-4-3-1c0-1.1-0.895-2-2-2h-4-10z"/><path fill="#1abc9c" d="m8 1028.4v18h1 9 1c1.105 0 2-0.9 2-2v-1-5-4-3-1c0-1.1-0.895-2-2-2h-4-6-1z"/><path fill="#e74c3c" d="m7 1048.4v2 2l2.5-2 2.5 2v-2-2h-5z"/><rect width="5" height="1" x="7" y="1047.4" fill="#c0392b"/></g></svg>