<svg xmlns="http://www.w3.org/2000/svg" width="24" height="24" version="1.1"><g transform="translate(0 -1028.4)"><path fill="#f39c12" d="m3.1875 6l-2 10h2v-5h18v5h2l-2-10h-18z" transform="translate(0 1028.4)"/><path fill="#e67e22" d="m3.1875 1038.4-2 13h2 18 2l-2-13h-18z"/><path fill="#f1c40f" d="m1.1875 1044.4v7h22v-7h-8.188c-0.416 1.1-1.511 2-2.812 2-1.302 0-2.3975-0.9-2.813-2h-8.1875z"/><path fill="#2c3e50" d="m6 7v1h12v-1h-12zm3 6v1h6v-1h-6z" transform="translate(0 1028.4)"/><rect width="22" height="1" x="1.188" y="1051.4" fill="#f39c12"/><path fill="#34495e" d="m9 1041.4v-6h-3l6-6.5 6 6.5h-3v6h-6z"/></g></svg>