<svg xmlns="http://www.w3.org/2000/svg" width="24" height="24" version="1.1"><g><path fill="#95a5a6" d="m22 1030.4c1.105 0 2 0.9 2 2v3 2 3c0 1.1-0.895 2-2 2v4l-4.875-4h-2.125-6c-1.1046 0-2-0.9-2-2v-3-2-3c0-1.1 0.8954-2 2-2h6 1 6z" transform="translate(0 -1028.4)"/><path fill="#bdc3c7" d="m22 1029.4c1.105 0 2 0.9 2 2v3 2 3c0 1.1-0.895 2-2 2v4l-4.875-4h-2.125-6c-1.1046 0-2-0.9-2-2v-3-2-3c0-1.1 0.8954-2 2-2h6 1 6z" transform="translate(0 -1028.4)"/><path fill="#bdc3c7" d="m2 1036.4c-1.1046 0-2 0.9-2 2v3 2 3c0 1.1 0.89543 2 2 2v4l4.875-4h2.125 6c1.105 0 2-0.9 2-2v-3-2-3c0-1.1-0.895-2-2-2h-6-1-6z" transform="translate(0 -1028.4)"/><path fill="#ecf0f1" d="m2 1035.4c-1.1046 0-2 0.9-2 2v3 2 3c0 1.1 0.89543 2 2 2v4l4.875-4h2.125 6c1.105 0 2-0.9 2-2v-3-2-3c0-1.1-0.895-2-2-2h-6-1-6z" transform="translate(0 -1028.4)"/></g></svg>