<svg xmlns="http://www.w3.org/2000/svg" width="24" height="24" version="1.1"><g transform="translate(0 -1028.4)"><rect width="14" height="20" x="5" y="1031.4" fill="#bdc3c7"/><g><g fill="#3498db" transform="translate(0 2)"><rect width="2" height="3" x="7" y="3" transform="translate(0 1028.4)"/><rect width="2" height="3" x="11" y="1031.4"/><rect width="2" height="3" x="15" y="1031.4"/></g><g fill="#2980b9" transform="translate(0 2)"><rect width="2" height="1" x="7" y="3" transform="translate(0 1028.4)"/><rect width="2" height="1" x="11" y="3" transform="translate(0 1028.4)"/><rect width="2" height="1" x="15" y="3" transform="translate(0 1028.4)"/></g></g><g><g fill="#3498db" transform="translate(0 7)"><rect width="2" height="3" x="7" y="3" transform="translate(0 1028.4)"/><rect width="2" height="3" x="11" y="1031.4"/><rect width="2" height="3" x="15" y="1031.4"/></g><g fill="#2980b9" transform="translate(0 7)"><rect width="2" height="1" x="7" y="3" transform="translate(0 1028.4)"/><rect width="2" height="1" x="11" y="3" transform="translate(0 1028.4)"/><rect width="2" height="1" x="15" y="3" transform="translate(0 1028.4)"/></g></g><g><g fill="#3498db" transform="translate(0 12)"><rect width="2" height="3" x="7" y="3" transform="translate(0 1028.4)"/><rect width="2" height="3" x="11" y="1031.4"/><rect width="2" height="3" x="15" y="1031.4"/></g><g fill="#2980b9" transform="translate(0 12)"><rect width="2" height="1" x="7" y="3" transform="translate(0 1028.4)"/><rect width="2" height="1" x="11" y="3" transform="translate(0 1028.4)"/><rect width="2" height="1" x="15" y="3" transform="translate(0 1028.4)"/></g></g><g><rect width="6" height="3" x="7" y="1048.4" fill="#e67e22"/><rect width="6" height="1" x="7" y="1048.4" fill="#d35400"/><rect width="1" height="3" x="9" y="1048.4" fill="#d35400"/><rect width="2" height="2" x="15" y="1048.4" fill="#3498db"/><rect width="2" height="1" x="15" y="1048.4" fill="#2980b9"/></g><path fill="#bdc3c7" d="m4 1030.4h16l-2.667-2h-10.666l-2.667 2"/><rect width="16" height="1" x="4" y="1030.4" fill="#7f8c8d"/><rect width="14" height="1" x="5" y="3" fill="#95a5a6" transform="translate(0 1028.4)"/></g></svg>