<svg xmlns="http://www.w3.org/2000/svg" width="24" height="24" version="1.1"><g transform="translate(0 -1028.4)"><path fill="#7f8c8d" d="m6 1030.4c-1.1046 0-2 0.9-2 2v18c0 1.1 0.8954 2 2 2h12c1.105 0 2-0.9 2-2v-18c0-1.1-0.895-2-2-2h-12z"/><path fill="#95a5a6" d="m6 1029.4c-1.1046 0-2 0.9-2 2v18c0 1.1 0.8954 2 2 2h12c1.105 0 2-0.9 2-2v-18c0-1.1-0.895-2-2-2h-12z"/><path fill="#7f8c8d" d="m7 1038.4c-0.5523 0-1 0.4-1 1v3c0 0.5 0.4477 1 1 1h3c0.552 0 1-0.5 1-1v-3c0-0.6-0.448-1-1-1h-3zm7 0c-0.552 0-1 0.4-1 1v3c0 0.5 0.448 1 1 1h3c0.552 0 1-0.5 1-1v-3c0-0.6-0.448-1-1-1h-3zm-7 7c-0.5523 0-1 0.4-1 1v3c0 0.5 0.4477 1 1 1h3c0.552 0 1-0.5 1-1v-3c0-0.6-0.448-1-1-1h-3zm7 0c-0.552 0-1 0.4-1 1v3c0 0.5 0.448 1 1 1h3c0.552 0 1-0.5 1-1v-3c0-0.6-0.448-1-1-1h-3z"/><path fill="#ecf0f1" d="m7 9c-0.5523 0-1 0.4477-1 1v3c0 0.552 0.4477 1 1 1h3c0.552 0 1-0.448 1-1v-3c0-0.5523-0.448-1-1-1h-3zm7 0c-0.552 0-1 0.4477-1 1v3c0 0.552 0.448 1 1 1h3c0.552 0 1-0.448 1-1v-3c0-0.5523-0.448-1-1-1h-3zm-7 7c-0.5523 0-1 0.448-1 1v3c0 0.552 0.4477 1 1 1h3c0.552 0 1-0.448 1-1v-3c0-0.552-0.448-1-1-1h-3zm7 0c-0.552 0-1 0.448-1 1v3c0 0.552 0.448 1 1 1h3c0.552 0 1-0.448 1-1v-3c0-0.552-0.448-1-1-1h-3z" transform="translate(0 1028.4)"/><path fill="#2c3e50" d="m8 1038.4v1h-1v1h1v1h1v-1h1v-1h-1v-1h-1z"/><rect width="3" height="1" x="14" y="1039.4" fill="#2c3e50"/><rect width="3" height="1" x="14" y="1045.4" fill="#e74c3c"/><rect width="3" height="1" x="14" y="1047.4" fill="#e74c3c"/><path fill="#2c3e50" d="m7.0858 1046.2 0.7071 0.7-0.7071 0.7 0.7071 0.7 0.7071-0.7 0.7071 0.7 0.7071-0.7-0.7071-0.7 0.7071-0.7-0.7071-0.8-0.7071 0.8-0.7071-0.8-0.7071 0.8z"/><path fill="#34495e" d="m7 1031.4c-0.5523 0-1 0.4-1 1v2c0 0.5 0.4477 1 1 1h10c0.552 0 1-0.5 1-1v-2c0-0.6-0.448-1-1-1h-10z"/><path fill="#2c3e50" d="m7 1031.4c-0.5523 0-1 0.4-1 1h12c0-0.6-0.448-1-1-1h-10z"/></g></svg>