<svg xmlns="http://www.w3.org/2000/svg" width="24" height="24" version="1.1"><g transform="translate(0 -1028.4)"><path fill="#ecf0f1" d="m4 2-2 5h20l-2-5h-4-8z" transform="translate(0 1028.4)"/><path fill="#1abc9c" d="m9 1035.4h6l-1-5h-4z"/><path fill="none" d="m2 6h20l-2 13h-17z" transform="translate(0 1028.4)"/><g><rect width="20" height="16" x="2" y="1035.4" fill="#bdc3c7"/><path fill="#ecf0f1" d="m5 1045.4c-0.5523 0-1 0.4-1 1v2c0 0.5 0.4477 1 1 1h6c0.552 0 1-0.5 1-1v-2c0-0.6-0.448-1-1-1h-6z"/><path fill="#16a085" d="m9 7v6 1l1-1 1 1 1-1 1 1 1-1 1 1v-1-6h-6z" transform="translate(0 1028.4)"/></g><g fill="#95a5a6"><rect width="1" height="2" x="5" y="1046.4"/><rect width="1" height="2" x="7" y="1046.4"/><rect width="1" height="2" x="9" y="1046.4"/></g><rect width="1" height="2" x="10" y="1046.4" fill="#7f8c8d"/><rect width="1" height="2" x="8" y="1046.4" fill="#bdc3c7"/></g></svg>