<svg xmlns="http://www.w3.org/2000/svg" width="24" height="24" version="1.1"><g transform="translate(0 -1028.4)"><rect width="24" height="1" x="0" y="1047.4" fill="#95a5a6"/><path fill="#7f8c8d" d="m4 1033.4c-0.5523 0-1 0.4-1 1v1 7 1 1 2h2 14 2v-2-2-7-1c0-0.6-0.448-1-1-1h-1-13-1-1z"/><path fill="#bdc3c7" d="m3 1046.4-3 1h3 18 3l-3-1h-18z"/><rect width="4" height="1" x="10" y="1047.4" fill="#7f8c8d"/><rect width="16" height="11" x="4" y="1034.4" fill="#34495e"/><path fill="#2c3e50" d="m20 1036.8-14.812 8.6h13.812 1v-1-7.6z"/></g></svg>