<svg xmlns="http://www.w3.org/2000/svg" width="24" height="24" version="1.1"><g transform="translate(0 -1028.4)"><path fill="#95a5a6" d="m7 1030.4c-0.5523 0-1 0.4-1 1v1 1 1 1 1 1 1 1 3 1 1 1 1 1 1 1 1c0 0.5 0.4477 1 1 1h5 3 1 1c0.552 0 1-0.5 1-1v-1-1-1-1-1-1-1-1-7-1-1-1-1c0-0.6-0.448-1-1-1h-5-3-1-1z"/><path fill="#bdc3c7" d="m7 1029.4c-0.5523 0-1 0.4-1 1v1 1 1 1 1 1 1 1 3 1 1 1 1 1 1 1 1c0 0.5 0.4477 1 1 1h5 3 1 1c0.552 0 1-0.5 1-1v-1-1-1-1-1-1-1-1-7-1-1-1-1c0-0.6-0.448-1-1-1h-5-3-1-1z"/><path fill="#95a5a6" d="m13 20a1 1 0 1 1 -2 0 1 1 0 1 1 2 0z" transform="translate(0 1028.9)"/><rect width="10" height="15" x="7" y="1032.4" fill="#2c3e50"/><path fill="#34495e" d="m7 1031.4v12l10-8.3v-3.7h-10z"/><rect width="6" height="1" x="9" y="1029.4" fill="#95a5a6"/></g></svg>