<svg xmlns="http://www.w3.org/2000/svg" width="24" height="24" version="1.1"><g transform="translate(0 -1028.4)"><path fill="#95a5a6" d="m23 1048.4c0 1.1-0.895 2-2 2h-8-4-6c-1.1046 0-2-0.9-2-2v-14c0-1.1 0.8954-2 2-2h6 4 4 4c1.105 0 2 0.9 2 2v4 10z"/><path fill="#bdc3c7" d="m1 1047.4c0 1.1 0.8954 2 2 2h8 4 6c1.105 0 2-0.9 2-2v-14c0-1.1-0.895-2-2-2h-6-4-4-4c-1.1046 0-2 0.9-2 2v4 10z"/><rect width="18" height="14" x="3" y="5" fill="#f39c12" transform="translate(0 1028.4)"/><path fill="#e67e22" d="m16.625 8.625-10.344 10.375h14.719v-6l-4.375-4.375z" transform="translate(0 1028.4)"/><path fill="#f1c40f" d="m8 8a2 2 0 1 1 -4 0 2 2 0 1 1 4 0z" transform="matrix(1.75 0 0 1.75 -3 1024.4)"/><path fill="#d35400" d="m8.0938 11.094-5.0938 5.094v2.812h13l-7.9062-7.906z" transform="translate(0 1028.4)"/></g></svg>