<svg xmlns="http://www.w3.org/2000/svg" width="24" height="24" version="1.1"><g><path fill="#e67e22" d="m5 1030.4c-1.1046 0-2 0.9-2 2v8 4 6c0 1.1 0.8954 2 2 2h14c1.105 0 2-0.9 2-2v-6-4-4l-6-6h-10z" transform="translate(0 -1028.4)"/><path fill="#f39c12" d="m5 1029.4c-1.1046 0-2 0.9-2 2v8 4 6c0 1.1 0.8954 2 2 2h14c1.105 0 2-0.9 2-2v-6-4-4l-6-6h-10z" transform="translate(0 -1028.4)"/><path fill="#e67e22" d="m21 1035.4-6-6v4c0 1.1 0.895 2 2 2h4z" transform="translate(0 -1028.4)"/><g fill="#ecf0f1" transform="translate(0 -1028.4)"><rect width="1" height="4" x="17" y="1044.4"/><path d="m13 13l-2.062 7h1.031l0.593-2h1.907l0.593 2h1.032l-2.063-6.969v-0.031h-1.031zm0.5 1.781l0.656 2.219h-1.312l0.656-2.219z" transform="translate(0 1028.4)"/><path d="m18 13.5a0.5 0.5 0 1 1 -1 0 0.5 0.5 0 1 1 1 0z" transform="matrix(1.1875 0 0 1.1875 -3.2969 1027)"/></g></g></svg>