<svg xmlns="http://www.w3.org/2000/svg" width="24" height="24" version="1.1"><g transform="translate(0 -1028.4)"><path fill="#95a5a6" d="m5 1030.4c-1.1046 0-2 0.9-2 2v8 4 6c0 1.1 0.8954 2 2 2h14c1.105 0 2-0.9 2-2v-6-4-4l-6-6h-10z"/><path fill="#bdc3c7" d="m5 1029.4c-1.1046 0-2 0.9-2 2v8 4 6c0 1.1 0.8954 2 2 2h14c1.105 0 2-0.9 2-2v-6-4-4l-6-6h-10z"/><rect width="2" height="14" x="7" y="5" fill="#1abc9c" transform="translate(0 1028.4)"/><path fill="#16a085" d="m7 4c-0.5523 0-1 0.4477-1 1v2 1 2 1 2 1 2 1 2c0 0.552 0.4477 1 1 1h2 1 3 1 3c0.552 0 1-0.448 1-1v-2-1-2-3-3-1-2c0-0.5523-0.448-1-1-1h-3-1-4-2zm0 1h2v2h-2v-2zm3 0h3v2h-3v-2zm4 0h3v2h-3v-2zm-7 3h2v2h-2v-2zm3 0h3v2h-3v-2zm4 0h3v2h-3v-2zm-7 3h2v2h-2v-2zm3 0h3v2h-3v-2zm4 0h3v2h-3v-2zm-7 3h2v2h-2v-2zm3 0h3v2h-3v-2zm4 0h3v2h-3v-2zm-7 3h2v2h-2v-2zm3 0h3v2h-3v-2zm4 0h3v2h-3v-2z" transform="translate(0 1028.4)"/><path fill="#95a5a6" d="m21 1035.4-6-6v4c0 1.1 0.895 2 2 2h4z"/></g></svg>