<svg xmlns="http://www.w3.org/2000/svg" width="24" height="24" version="1.1"><g><path fill="#95a5a6" d="m5 1030.4c-1.1046 0-2 0.9-2 2v8 4 6c0 1.1 0.8954 2 2 2h14c1.105 0 2-0.9 2-2v-6-4-4l-6-6h-10z" transform="translate(0 -1028.4)"/><path fill="#bdc3c7" d="m5 1029.4c-1.1046 0-2 0.9-2 2v8 4 6c0 1.1 0.8954 2 2 2h14c1.105 0 2-0.9 2-2v-6-4-4-4c0-1.1-0.895-2-2-2h-4-10z" transform="translate(0 -1028.4)"/><path fill="#95a5a6" d="m5 1030.4v10 2 2l2.5-2 2.5 2v-2-2-10h-5z" transform="translate(0 -1028.4)"/><path fill="#e74c3c" d="m5 1030.4v9 2 2l2.5-2 2.5 2v-2-2-9h-5z" transform="translate(0 -1028.4)"/><path fill="#c0392b" d="m6 1029.4c-0.5523 0-1 0.4-1 1h2 1 2c0-0.6-0.4477-1-1-1h-3z" transform="translate(0 -1028.4)"/></g></svg>