<svg xmlns="http://www.w3.org/2000/svg" width="24" height="24" version="1.1"><g transform="translate(0 -1028.4)"><path fill="#8e44ad" d="m5 1030.4c-1.1046 0-2 0.9-2 2v8 4 6c0 1.1 0.8954 2 2 2h14c1.105 0 2-0.9 2-2v-6-4-4l-6-6h-10z"/><path fill="#9b59b6" d="m5 1029.4c-1.1046 0-2 0.9-2 2v8 4 6c0 1.1 0.8954 2 2 2h14c1.105 0 2-0.9 2-2v-6-4-4l-6-6h-10z"/><path fill="#8e44ad" d="m21 1035.4-6-6v4c0 1.1 0.895 2 2 2h4z"/><path fill="#ecf0f1" d="m17 14v2h-1c-1.105 0-2 0.895-2 2s0.895 2 2 2h1 1v-6h-1zm-1 3h1v2h-1c-0.552 0-1-0.448-1-1s0.448-1 1-1z" transform="translate(0 1028.4)"/><rect width="1" height="7" x="12" y="1041.4" fill="#ecf0f1"/></g></svg>