<svg xmlns="http://www.w3.org/2000/svg" width="24" height="24" version="1.1"><g><path fill="#95a5a6" d="m5 1030.4c-1.1046 0-2 0.9-2 2v8 4 6c0 1.1 0.8954 2 2 2h14c1.105 0 2-0.9 2-2v-6-4-4l-6-6h-10z" transform="translate(0 -1028.4)"/><path fill="#bdc3c7" d="m5 1029.4c-1.1046 0-2 0.9-2 2v8 4 6c0 1.1 0.8954 2 2 2h14c1.105 0 2-0.9 2-2v-6-4-4l-6-6h-10z" transform="translate(0 -1028.4)"/><path fill="#e67e22" d="m15 1039.4v4h4c0-2.2-1.791-4-4-4z" transform="translate(0 -1028.4)"/><path fill="#d35400" d="m14 1040.4c-2.209 0-4 1.8-4 4s1.791 4 4 4 4-1.8 4-4h-4v-4z" transform="translate(0 -1028.4)"/><g fill="#95a5a6" transform="translate(0 -1028.4)"><rect width="12" height="1" x="6" y="1034.4"/><rect width="3" height="2" x="6" y="1040.4"/><rect width="3" height="2" x="6" y="1043.4"/><rect width="3" height="2" x="6" y="1046.4"/><rect width="12" height="1" x="6" y="1036.4"/><path d="m21 1035.4-6-6v4c0 1.1 0.895 2 2 2h4z"/></g></g></svg>