<svg xmlns="http://www.w3.org/2000/svg" width="24" height="24" version="1.1"><g transform="translate(0 -1028.4)"><rect width="1" height="22" x="3" y="1030.4" fill="#ecf0f1"/><path fill="#1abc9c" d="m17.5 1030.4c-2.25 0-4.5 1.1-4.5 1.1s-2.25 1.1-4.5 1.1-4.5-1.1-4.5-1.1v13.7s2.25 1.2 4.5 1.2 4.5-1.2 4.5-1.2 2.25-1.1 4.5-1.1 4.5 1.1 4.5 1.1v-13.7s-2.25-1.1-4.5-1.1z"/><rect width="1" height="22" x="2" y="1030.4" fill="#bdc3c7"/><path fill="#16a085" d="m17.5 1043.2c-2.25 0-4.5 1.2-4.5 1.2s-2.25 1.1-4.5 1.1-4.5-1.1-4.5-1.1v1s2.25 1.1 4.5 1.1 4.5-1.1 4.5-1.1 2.25-1.2 4.5-1.2 4.5 1.2 4.5 1.2v-1s-2.25-1.2-4.5-1.2z"/><path fill="#95a5a6" d="m3 1029.4c-0.5523 0-1 0.4-1 1h2c0-0.6-0.4477-1-1-1z"/><path fill="#bdc3c7" d="m3 1029.4v1h1c0-0.6-0.4477-1-1-1z"/></g></svg>