<svg xmlns="http://www.w3.org/2000/svg" width="24" height="24" version="1.1"><g transform="translate(0 -1028.4)"><path fill="#3498db" d="m5 1031.4c-1.1046 0-2 0.9-2 2v14c0 1.1 0.8954 2 2 2h13 1c1.105 0 2-0.9 2-2v-13l-3-3h-13z"/><path fill="#2980b9" d="m7 1031.4v1 5c0 0.5 0.4477 1 1 1h8c0.552 0 1-0.5 1-1v-5-1h-10z"/><path fill="#ecf0f1" d="m7 3v5c0 0.5523 0.4477 1 1 1h8c0.552 0 1-0.4477 1-1v-5h-10z" transform="translate(0 1028.4)"/><path fill="#ecf0f1" d="m6 1040.4c-0.5523 0-1 0.4-1 1v3 2 3h4 6 4v-3-2-3c0-0.6-0.448-1-1-1h-4-4-4z"/><g fill="#bdc3c7"><rect width="14" height="1" x="5" y="1048.4"/><rect width="10" height="1" x="7" y="1042.4"/><rect width="10" height="1" x="7" y="1044.4"/></g><rect width="3" height="4" x="13" y="1032.4" fill="#3498db"/><rect width="3" height="1" x="13" y="1032.4" fill="#2980b9"/></g></svg>