<svg xmlns="http://www.w3.org/2000/svg" width="24" height="24" version="1.1"><g><path fill="#95a5a6" d="m6 1034.4c-0.7071 0-1.4347 0.1-2.0625 0.3-2.3366 0.8-3.943 3.2-3.9375 5.7-0.005475 2.4 1.6009 4.8 3.9375 5.6 0.9747 0.4 2.1565 0.4 3.1875 0.4 1.95 0 3.172-2.1 4.875-2 1.703-0.1 2.925 2 4.875 2 1.031 0 2.213 0 3.187-0.4 2.337-0.8 3.943-3.2 3.938-5.6 0.005-2.5-1.601-4.9-3.938-5.7-0.631-0.2-1.354-0.3-2.062-0.3h-1.125-9.75-0.7812z" transform="translate(0 -1028.4)"/><path fill="#bdc3c7" d="m6 1033.4c-0.7071 0-1.4347 0.1-2.0625 0.3-2.3366 0.8-3.943 3.2-3.9375 5.7-0.005475 2.4 1.6009 4.8 3.9375 5.6 0.9747 0.4 2.1565 0.4 3.1875 0.4 1.95 0 3.172-2.1 4.875-2 1.703-0.1 2.925 2 4.875 2 1.031 0 2.213 0 3.187-0.4 2.337-0.8 3.943-3.2 3.938-5.6 0.005-2.5-1.601-4.9-3.938-5.7-0.631-0.2-1.354-0.3-2.062-0.3h-1.125-9.75-0.7812z" transform="translate(0 -1028.4)"/><path fill="#ecf0f1" d="m11 11a4 4 0 1 1 -8 0 4 4 0 1 1 8 0z" transform="translate(0 -1028.4) translate(-1 1028.4)"/><path fill="#7f8c8d" d="m6 1036.4c-0.5523 0-1 0.4-1 1v1h-1c-0.5523 0-1 0.4-1 1 0 0.5 0.4477 1 1 1h1v1c0 0.5 0.4477 1 1 1s1-0.5 1-1v-1h1c0.5523 0 1-0.5 1-1 0-0.6-0.4477-1-1-1h-1v-1c0-0.6-0.4477-1-1-1z" transform="translate(0 -1028.4)"/><path fill="#ecf0f1" d="m11 11a4 4 0 1 1 -8 0 4 4 0 1 1 8 0z" transform="translate(0 -1028.4) translate(11 1028.4)"/><path fill="#27ae60" d="m16 10a1 1 0 1 1 -2 0 1 1 0 1 1 2 0z" transform="translate(0 -1028.4) translate(1 1029.4)"/><path fill="#f39c12" d="m16 10a1 1 0 1 1 -2 0 1 1 0 1 1 2 0z" transform="translate(0 -1028.4) translate(3 1031.4)"/><path fill="#2980b9" d="m16 10a1 1 0 1 1 -2 0 1 1 0 1 1 2 0z" transform="translate(0 -1028.4) translate(3 1027.4)"/><path fill="#c0392b" d="m16 10a1 1 0 1 1 -2 0 1 1 0 1 1 2 0z" transform="translate(0 -1028.4) translate(5 1029.4)"/><path fill="#7f8c8d" d="m11.5 11c-0.276 0-0.5 0.224-0.5 0.5s0.224 0.5 0.5 0.5h1c0.276 0 0.5-0.224 0.5-0.5s-0.224-0.5-0.5-0.5h-1z" transform="translate(0 -1028.4) translate(0 1028.4)"/></g></svg>