<svg xmlns="http://www.w3.org/2000/svg" width="24" height="24" version="1.1"><g transform="translate(0 -1028.4)"><rect width="3" height="6" x="17" y="1031.4" fill="#c0392b"/><path fill="#bdc3c7" d="m12 3.0312l-9 8.9688v1.812 5.376 1.812h1 8 8 1v-1.812-5.376-1.812l-9-8.9688z" transform="translate(0 1028.4)"/><path fill="#95a5a6" d="m12 1032-9 8.9v1.9 0.1l9-9 9 9v-0.1-1.9l-9-8.9z"/><g><path fill="#e74c3c" d="m12 1029.4-11.314 11.3 1.4145 1.4 9.8995-9.9 9.899 9.9 1.415-1.4-11.314-11.3z"/><path fill="#3498db" d="m14 9a2 2 0 1 1 -4 0 2 2 0 1 1 4 0z" transform="translate(0 1029.4)"/><rect width="4" height="6" x="10" y="1043.4" fill="#e67e22"/><path fill="#d35400" d="m12 17.5a0.5 0.5 0 1 1 -1 0 0.5 0.5 0 1 1 1 0z" transform="translate(1.5 1029.4)"/><path fill="#2980b9" d="m12 1036.4c-1.105 0-2 0.9-2 2 0 0.1 0.021 0.3 0.062 0.5 0.222-0.9 1.006-1.5 1.938-1.5s1.716 0.6 1.938 1.5c0.041-0.2 0.062-0.4 0.062-0.5 0-1.1-0.895-2-2-2z"/><path fill="#f1c40f" d="m12 17.5a0.5 0.5 0 1 1 -1 0 0.5 0.5 0 1 1 1 0z" transform="translate(1.5 1028.9)"/><rect width="4" height="1" x="10" y="1042.4" fill="#d35400"/></g></g></svg>