<svg xmlns="http://www.w3.org/2000/svg" width="24" height="24" version="1.1"><g transform="translate(0 -1028.4)"><rect width="4" height="10" x="-729.04" y="747.57" fill="#95a5a6" transform="rotate(-45)"/><rect width="4" height="3" x="-729.04" y="747.57" fill="#7f8c8d" transform="rotate(-45)"/><path fill="#bdc3c7" d="m3.201 1031.4c-3.5147 3.5-3.5147 9.2 0 12.7 3.5148 3.5 9.213 3.5 12.728 0s3.515-9.2 0-12.7-9.2133-3.5-12.728 0zm2.1213 2.1c2.3432-2.3 6.1417-2.3 8.4857 0 2.343 2.4 2.343 6.2 0 8.5-2.344 2.3-6.1425 2.3-8.4857 0-2.3431-2.3-2.3431-6.1 0-8.5z"/><path fill="#ecf0f1" d="m16 9.5c0 3.59-2.91 6.5-6.5 6.5-3.5899 0-6.5-2.91-6.5-6.5 0-3.5899 2.9101-6.5 6.5-6.5 3.59 0 6.5 2.9101 6.5 6.5z" transform="translate(0 1028.4)"/><rect width="1" height="7" x="-1038.4" y="6" fill="#95a5a6" transform="rotate(-90)"/></g></svg>