<svg xmlns="http://www.w3.org/2000/svg" width="24" height="24" version="1.1"><g><path fill="#bdc3c7" d="m5 1030.4c-1.1046 0-2 0.9-2 2v8 4 6c0 1.1 0.8954 2 2 2h14c1.105 0 2-0.9 2-2v-6-4-4-4c0-1.1-0.895-2-2-2h-4-10z" transform="translate(0 -1028.4)"/><g fill="#95a5a6" transform="translate(0 -1028.4)"><path d="m6 1028.4c-0.5523 0-1 0.4-1 1v3c0 0.5 0.4477 1 1 1s1-0.5 1-1v-3c0-0.6-0.4477-1-1-1zm4 0c-0.5523 0-1 0.4-1 1v3c0 0.5 0.4477 1 1 1 0.552 0 1-0.5 1-1v-3c0-0.6-0.448-1-1-1zm4 0c-0.552 0-1 0.4-1 1v3c0 0.5 0.448 1 1 1s1-0.5 1-1v-3c0-0.6-0.448-1-1-1zm4 0c-0.552 0-1 0.4-1 1v3c0 0.5 0.448 1 1 1s1-0.5 1-1v-3c0-0.6-0.448-1-1-1z"/><rect width="12" height="1" x="6" y="1043.4"/><rect width="12" height="1" x="6" y="1040.4"/><rect width="12" height="1" x="6" y="1037.4"/><rect width="4" height="1" x="6" y="18" transform="translate(0 1028.4)"/></g><path fill="#7f8c8d" d="m5 1032.4c0 0.5 0.4477 1 1 1s1-0.5 1-1h-2zm4 0c0 0.5 0.4477 1 1 1 0.552 0 1-0.5 1-1h-2zm4 0c0 0.5 0.448 1 1 1s1-0.5 1-1h-2zm4 0c0 0.5 0.448 1 1 1s1-0.5 1-1h-2z" transform="translate(0 -1028.4)"/><path fill="#95a5a6" d="m3 1049.4v1c0 1.1 0.8954 2 2 2h14c1.105 0 2-0.9 2-2v-1c0 1.1-0.895 2-2 2h-14c-1.1046 0-2-0.9-2-2z" transform="translate(0 -1028.4)"/><g transform="translate(0 -1028.4) matrix(.70711 .70711 -.70711 .70711 773.22 370.4)"><path fill="#ecf0f1" d="m-63 1003.4v11.3 0.7 1l2 2 2-2v-1-0.7-11.3h-4z"/><path fill="#bdc3c7" d="m-61 1003.4v15l2-2v-1-0.7-11.3h-2z"/><rect width="4" height="11" x="-63" y="1004.4" fill="#e67e22"/><path fill="#7f8c8d" d="m-61 1000.4c-1.105 0-2 0.9-2 2v1h4v-1c0-1.1-0.895-2-2-2z"/><g><path fill="#34495e" d="m-55.406 1016 1.406 1.4 1.406-1.4h-1.406-1.406z" transform="translate(-7,1)"/><path fill="#2c3e50" d="m-54 1016v1.4l1.406-1.4h-1.406z" transform="translate(-7,1)"/></g><path fill="#95a5a6" d="m-61 1000.4c-1.105 0-2 0.9-2 2v1h2v-3z"/><rect width="2" height="11" x="-61" y="1004.4" fill="#d35400"/></g></g></svg>