<svg xmlns="http://www.w3.org/2000/svg" width="24" height="24" version="1.1"><g><g><path fill="#c0392b" d="m11 1028.4v13h1 6.406c-0.595-1.1-1.416-2.1-2.406-2.8v-8c0.616-0.6 1.131-1.4 1.531-2.2h-5.531-1z" transform="translate(0 -1028.4) matrix(.70711 .70711 -.70711 .70711 737.68 297.72)"/><path fill="#bdc3c7" d="m11 13v2 4 2l1 2v-2-6-2h-1z" transform="translate(0 -1028.4) matrix(.70711 .70711 -.70711 .70711 737.68 297.72) translate(0 1028.4)"/><path fill="#7f8c8d" d="m12 13v2 4 2 2l1-2v-2-4-2h-1z" transform="translate(0 -1028.4) matrix(.70711 .70711 -.70711 .70711 737.68 297.72) translate(0 1028.4)"/><path fill="#e74c3c" d="m6.4688 1028.4c0.4006 0.8 0.915 1.6 1.5312 2.2v8c-0.9897 0.7-1.8113 1.7-2.4062 2.8h6.4062v-13h-5.5312z" transform="translate(0 -1028.4) matrix(.70711 .70711 -.70711 .70711 737.68 297.72)"/></g></g></svg>