<svg xmlns="http://www.w3.org/2000/svg" width="24" height="24" version="1.1"><g><path fill="#f1c40f" d="m2 4v13.531 2.469c0 1.105 0.8954 2 2 2h4 8l6-6v-12h-20z" transform="translate(0 -1028.4) translate(0 1028.4)"/><path fill="#f39c12" d="m22 1044.4-6 6v-4c0-1.1 0.895-2 2-2h4z" transform="translate(0 -1028.4)"/><path fill="#f1c40f" d="m4 2c-1.1046 0-2 0.8954-2 2v1 1h20v-1-1c0-1.1046-0.895-2-2-2h-4-8-4z" transform="translate(0 -1028.4) translate(0 1028.4)"/><g fill="#f39c12" transform="translate(0 -1028.4)"><rect width="14" height="2" x="5" y="1034.4"/><rect width="14" height="2" x="5" y="1038.4"/><rect width="9" height="2" x="5" y="1042.4"/></g></g></svg>