<svg xmlns="http://www.w3.org/2000/svg" width="24" height="24" version="1.1"><g><path fill="#95a5a6" d="m3 1031.4v10c0 4.2 3.6322 8 9 10 5.368-2 9-5.8 9-10v-10h-18z" transform="translate(0 -1028.4)"/><path fill="#ecf0f1" d="m3 1030.4v10c0 4.2 3.6322 8 9 10 5.368-2 9-5.8 9-10v-10h-18z" transform="translate(0 -1028.4)"/><path fill="#bdc3c7" d="m3 1030.4v10c0 4.2 3.6322 8 9 10v-20h-9z" transform="translate(0 -1028.4)"/><path fill="#f39c12" d="m5 1032.4v8c0 3.4 2.8251 6.4 7 8 4.175-1.6 7-4.6 7-8v-8h-14z" transform="translate(0 -1028.4)"/><path fill="#f1c40f" d="m12 1032.4v16c4.175-1.6 7-4.6 7-8v-8h-7z" transform="translate(0 -1028.4)"/><path fill="#34495e" d="m12 1034.4c-0.552 0-1 0.4-1 1l0.5 7h1l0.5-7c0-0.6-0.448-1-1-1zm0 9c-0.552 0-1 0.4-1 1 0 0.5 0.448 1 1 1s1-0.5 1-1c0-0.6-0.448-1-1-1z" transform="translate(0 -1028.4)"/></g></svg>