<svg xmlns="http://www.w3.org/2000/svg" width="24" height="24" version="1.1"><g><path fill="#95a5a6" d="m3 1031.4v10c0 4.2 3.6322 8 9 10 5.368-2 9-5.8 9-10v-10h-18z" transform="translate(0 -1028.4)"/><path fill="#ecf0f1" d="m3 1030.4v10c0 4.2 3.6322 8 9 10 5.368-2 9-5.8 9-10v-10h-18z" transform="translate(0 -1028.4)"/><path fill="#bdc3c7" d="m3 1030.4v10c0 4.2 3.6322 8 9 10v-20h-9z" transform="translate(0 -1028.4)"/><path fill="#27ae60" d="m5 1032.4v8c0 3.4 2.8251 6.4 7 8 4.175-1.6 7-4.6 7-8v-8h-14z" transform="translate(0 -1028.4)"/><path fill="#2ecc71" d="m12 1032.4v16c4.175-1.6 7-4.6 7-8v-8h-7z" transform="translate(0 -1028.4)"/><path fill="#27ae60" d="m16 1037.4-4.683 4.6-1.9511-1.9-1.6586 1.7 1.9512 1.9 1.5615 1.6 0.097 0.1 6.342-6.4-1.659-1.6z" transform="translate(0 -1028.4)"/><path fill="#ecf0f1" d="m16 1036.4-4.683 4.6-1.9511-1.9-1.6586 1.7 1.9512 1.9 1.5615 1.6 0.097 0.1 6.342-6.4-1.659-1.6z" transform="translate(0 -1028.4)"/></g></svg>