<svg xmlns="http://www.w3.org/2000/svg" width="24" height="24" version="1.1"><g transform="translate(0 -1028.4)"><path fill="#95a5a6" d="m0 1050.4h24l-4-6h-16l-4 6"/><g><rect width="20" height="17" x="2" y="1032.4" fill="#f1c40f"/><rect width="9" height="9" x="4" y="1039.4" fill="#ecf0f1"/><rect width="6" height="9" x="14" y="1040.4" fill="#ecf0f1"/><rect width="20" height="4" x="2" y="1037.4" fill="#f39c12"/><rect width="6" height="1" x="14" y="1039.4" fill="#bdc3c7"/><rect width="9" height="2" x="4" y="1039.4" fill="#bdc3c7"/><path fill="#c0392b" d="m0 1036.4v1.5c0 0.8 0.67157 1.5 1.5 1.5 0.8284 0 1.5-0.7 1.5-1.5v-1.5h-1.5-1.5z"/><path fill="#bdc3c7" d="m3 1036.4v1.5c0 0.8 0.6716 1.5 1.5 1.5s1.5-0.7 1.5-1.5v-1.5h-1.5-1.5z"/><path fill="#c0392b" d="m6 1036.4v1.5c0 0.8 0.6716 1.5 1.5 1.5s1.5-0.7 1.5-1.5v-1.5h-1.5-1.5z"/><path fill="#bdc3c7" d="m9 1036.4v1.5c0 0.8 0.6716 1.5 1.5 1.5 0.828 0 1.5-0.7 1.5-1.5v-1.5h-1.5-1.5z"/><path fill="#c0392b" d="m12 1036.4v1.5c0 0.8 0.672 1.5 1.5 1.5s1.5-0.7 1.5-1.5v-1.5h-1.5-1.5z"/><path fill="#bdc3c7" d="m15 1036.4v1.5c0 0.8 0.672 1.5 1.5 1.5s1.5-0.7 1.5-1.5v-1.5h-1.5-1.5z"/><path fill="#c0392b" d="m18 1036.4v1.5c0 0.8 0.672 1.5 1.5 1.5s1.5-0.7 1.5-1.5v-1.5h-1.5-1.5z"/><path fill="#bdc3c7" d="m21 1036.4v1.5c0 0.8 0.672 1.5 1.5 1.5s1.5-0.7 1.5-1.5v-1.5h-1.5-1.5z"/><path fill="#ecf0f1" d="m10 1032.4h2v4h-3z"/><path fill="#e74c3c" d="m12 1032.4h2l1 4h-3z"/><path fill="#ecf0f1" d="m5 1032.4h3l-2 4h-3z"/><path fill="#e74c3c" d="m8 1032.4h2l-1 4h-3z"/><path fill="#ecf0f1" d="m16 1032.4h-2l1 4h3z"/><path fill="#e74c3c" d="m19 1032.4h-3l2 4h3z"/><path fill="#e74c3c" d="m2 1032.4h3l-2 4h-3z"/><path fill="#ecf0f1" d="m22 1032.4h-3l2 4h3z"/><rect width="4" height="8" x="15" y="1041.4" fill="#3498db"/><rect width="5" height="1" x="14" y="1044.4" fill="#ecf0f1"/><rect width="1" height="1" x="19" y="1040.4" fill="#bdc3c7"/><rect width="4" height="1" x="15" y="1040.4" fill="#2980b9"/><rect width="1" height="1" x="14" y="1040.4" fill="#bdc3c7"/><rect width="7" height="7" x="5" y="1040.4" fill="#3498db"/></g><g fill="#ecf0f1"><rect width="9" height="1" x="4" y="1043.4"/><rect width="1" height="7" x="8" y="1040.4"/><path d="m1 1032.4h22l-3.667-2h-14.666l-3.667 2"/></g><rect width="1" height="1" x="8" y="12" fill="#bdc3c7" transform="translate(0 1028.4)"/><path fill="#bdc3c7" d="m1 1031.4h22l-3.667-2h-14.666l-3.667 2"/><g><rect width="22" height="1" x="1" y="3" fill="#7f8c8d" transform="translate(0 1028.4)"/><rect width="4" height="3" x="15" y="1046.4" fill="#2980b9"/><rect width="24" height="1" x="0" y="22" fill="#7f8c8d" transform="translate(0 1028.4)"/><path fill="#2980b9" d="m5 12v1h3v-1h-3zm4 0v1h3v-1h-3z" transform="translate(0 1028.4)"/><path fill="#2980b9" d="m5 1046.4v1h3v-1h-3zm4 0v1h3v-1h-3z"/><path fill="#c0392b" d="m2 1032.4-0.5 1h3l0.5-1h-3zm5 0-0.25 1h3l0.25-1h-3zm5 0v1h2.25l-0.25-1h-2zm4 0 0.5 1h3l-0.5-1h-3z"/><path fill="#bdc3c7" d="m5 1032.4-0.5 1h3.0013l0.4987-1zm5 0-0.25 1h2.25v-1zm4 0 0.25 1h2.25l-0.5-1zm5 0 0.5 1h3l-0.5-1z"/></g></g></svg>