<svg xmlns="http://www.w3.org/2000/svg" width="24" height="24" version="1.1"><g><path fill="#2980b9" d="m22 12c0 5.523-4.477 10-10 10-5.5228 0-10-4.477-10-10 0-5.5228 4.4772-10 10-10 5.523 0 10 4.4772 10 10z" transform="translate(0 -1028.4) translate(0 1029.4)"/><path fill="#3498db" d="m22 12c0 5.523-4.477 10-10 10-5.5228 0-10-4.477-10-10 0-5.5228 4.4772-10 10-10 5.523 0 10 4.4772 10 10z" transform="translate(0 -1028.4) translate(0 1028.4)"/><path fill="#2980b9" d="m11 1048.4h2v-9l3 4 2-1-6-7-6 7 2 1 3-4z" transform="translate(0 -1028.4)"/><path fill="#ecf0f1" d="m11 1047.4h2v-9l3 4 2-1-6-7-6 7 2 1 3-4z" transform="translate(0 -1028.4)"/></g></svg>