<svg xmlns="http://www.w3.org/2000/svg" width="24" height="24" version="1.1"><g><path fill="#2980b9" d="m22 12a10 10 0 1 1 -20 0 10 10 0 1 1 20 0z" transform="translate(0 -1028.4) translate(0 1029.4)"/><path fill="#3498db" d="m22 12a10 10 0 1 1 -20 0 10 10 0 1 1 20 0z" transform="translate(0 -1028.4) translate(0 1028.4)"/><path fill="#2980b9" d="m11 1035.4v2h2v-2h-2zm-1 4-1 1h2v6h-2v1h1 4 1v-1h-2v-7h-3z" transform="translate(0 -1028.4)"/><path fill="#ecf0f1" d="m11 6v2h2v-2h-2zm-1 4l-1 1h2v6h-2v1h1 4 1v-1h-2v-7h-3z" transform="translate(0 -1028.4) translate(0 1028.4)"/></g></svg>