<svg xmlns="http://www.w3.org/2000/svg" width="24" height="24" version="1.1"><g transform="translate(0 -1028.4)"><path fill="#c0392b" d="m22 12c0 5.523-4.477 10-10 10-5.5228 0-10-4.477-10-10 0-5.5228 4.4772-10 10-10 5.523 0 10 4.4772 10 10z" transform="translate(0 1029.4)"/><path fill="#e74c3c" d="m22 12c0 5.523-4.477 10-10 10-5.5228 0-10-4.477-10-10 0-5.5228 4.4772-10 10-10 5.523 0 10 4.4772 10 10z" transform="translate(0 1028.4)"/><rect width="12" height="4" x="6" y="1039.4" fill="#c0392b"/><rect width="12" height="3" x="6" y="1039.4" fill="#ecf0f1"/></g></svg>