<svg xmlns="http://www.w3.org/2000/svg" width="24" height="24" version="1.1"><g><path fill="#27ae60" d="m22 12c0 5.523-4.477 10-10 10-5.5228 0-10-4.477-10-10 0-5.5228 4.4772-10 10-10 5.523 0 10 4.4772 10 10z" transform="translate(0 -1028.4) translate(0 1029.4)"/><path fill="#2ecc71" d="m22 12c0 5.523-4.477 10-10 10-5.5228 0-10-4.477-10-10 0-5.5228 4.4772-10 10-10 5.523 0 10 4.4772 10 10z" transform="translate(0 -1028.4) translate(0 1028.4)"/><path fill="#27ae60" d="m6.0001 1042.4h4.9999v5h2v-5h5v-2h-5v-5h-2v5h-4.9999v2z" transform="translate(0 -1028.4)"/><path fill="#ecf0f1" d="m6 1041.4h5v5h2v-5h5v-2h-5v-5h-2v5h-5v2z" transform="translate(0 -1028.4)"/></g></svg>