<svg xmlns="http://www.w3.org/2000/svg" width="24" height="24" version="1.1"><g><g transform="translate(0 -1028.4)"><path fill="#30497b" d="m4 1031.4c-1.1046 0-2 0.9-2 2v16c0 1.1 0.8954 2 2 2h16c1.105 0 2-0.9 2-2v-16c0-1.1-0.895-2-2-2h-16z"/><path fill="#3b5998" d="m4 2c-1.1046 0-2 0.8954-2 2v16c0 1.105 0.8954 2 2 2h16c1.105 0 2-0.895 2-2v-16c0-1.1046-0.895-2-2-2h-16z" transform="translate(0 1028.4)"/><path fill="#30497b" d="m17 1034.4c-2.209 0-4 1.8-4 4v3h-2v3h2v7h3v-7h2.454l0.546-3h-3v-3c0-0.6 0.448-1 1-1h2v-3z"/><path fill="#ecf0f1" d="m17 5c-2.209 0-4 1.7909-4 4v3h-2v3h2v7h3v-7h2.454l0.546-3h-3v-3c0-0.5523 0.448-1 1-1h2v-3z" transform="translate(0 1028.4)"/><rect width="3" height="1" x="13" y="22" fill="#bdc3c7" transform="translate(0 1028.4)"/></g></g></svg>