<svg xmlns="http://www.w3.org/2000/svg" width="24" height="24" version="1.1"><g><rect width="12" height="6" x="6" y="1" fill="#ecf0f1"/><path fill="#7f8c8d" d="m11 14h2v2h-2z"/><path fill="#bdc3c7" d="m6 1v1 7c0 3.314 2.6863 6 6 6 3.314 0 6-2.686 6-6v-7-1h-1v1 6.4688c0 3.0582-2.239 5.5312-5 5.5312-2.7614 0-5-2.473-5-5.5312v-6.4688-1h-1z"/><path fill="#e74c3c" d="m7 6v1 1 0.4688c0 3.0582 2.2386 5.5312 5 5.5312 2.761 0 5-2.473 5-5.5312v-0.4688-1-1h-10z"/><path fill="#95a5a6" d="m11 16h2v6h-2z"/><path fill="#bdc3c7" d="m7 22h10v1h-10z"/><path fill="#c0392b" d="m7 6h10v1h-10z"/><path fill="#ecf0f1" d="m7 2v7c0 2.761 2.2386 5 5 5 2.761 0 5-2.239 5-5v-7h-1v4.0312 2.9688c0 2.209-1.791 4-4 4-2.2091 0-4-1.791-4-4v-2.9688-4.0312h-1z"/></g></svg>